<?xml version="1.0" encoding="utf-8"?>
<!-- Generator: Adobe Illustrator 18.1.1, SVG Export Plug-In . SVG Version: 6.00 Build 0)  -->
<svg version="1.1" id="レイヤー_1" xmlns="http://www.w3.org/2000/svg" xmlns:xlink="http://www.w3.org/1999/xlink" x="0px"
	 y="0px" viewBox="0 0 300 100" enable-background="new 0 0 300 100" xml:space="preserve">
<g>
	<g>
		<circle fill="#E00000" cx="41.3" cy="45.3" r="41.3"/>
		<path fill="#FFFFFF" d="M30.8,91.9c1.2-0.9,2.3-1.8,3.3-2.7c0.9-0.9,1.9-2,3-3.4c1-1.4,1.9-2.9,2.6-4.4c0.7-1.6,1.2-3.4,1.7-5.7
			c0.4-2.2,0.7-4.6,0.7-7.2v-28l-7.5-2.8l0.8-4l14-1.1l1.3,1.3v35.6c0,11.5-4.9,20-14.8,25.5l-2.3,1.2L30.8,91.9z M39.5,17.6
			c0-1.7,0.6-3.1,1.8-4.2c1.2-1.2,2.7-1.7,4.4-1.7c1.7,0,3.1,0.6,4.3,1.8c1.2,1.2,1.8,2.6,1.8,4.2c0,1.7-0.6,3.2-1.8,4.4
			c-1.2,1.2-2.6,1.9-4.3,1.9s-3.1-0.6-4.3-1.9C40.1,20.8,39.5,19.3,39.5,17.6z"/>
	</g>
	<g>
		<path d="M86.1,38.2v-2c3.2-2.5,6.4-5.7,9.4-9.5h2v8.3h10.7l-0.3,3.3H97.4l-0.1,17.5c0,2.8,0.4,4.8,1.3,5.8
			c0.9,1.1,2.3,1.6,4.3,1.6c0.8,0,1.7-0.2,2.6-0.5c0.9-0.4,1.6-0.7,2.1-1.1l0.8-0.5l0.8,2c-1.2,1.7-2.7,3.1-4.4,4.1
			c-1.8,1-3.7,1.5-5.8,1.5c-1.2,0-2.3-0.2-3.2-0.5c-0.9-0.3-1.8-0.9-2.5-1.7c-0.8-0.8-1.4-1.9-1.7-3.3c-0.4-1.4-0.6-3.2-0.6-5.2
			l0.2-19.8H86.1z"/>
		<path d="M111.2,67.9l0.4-2.8l5.8-1.5V40.3l-6.2-1.9l0.5-2.9l10.9-1.4l0.9,0.9l-0.8,8.7h0.7c1-3.3,2.3-5.8,3.9-7.6
			c1.7-1.8,3.3-2.7,5-2.7c1.4,0,2.5,0.4,3.3,1.3c0.8,0.8,1.3,1.9,1.3,3c0,1.7-1,3.2-3,4.6c-1.4-1.2-2.8-1.9-4.2-1.9
			c-1.2,0-2.4,0.7-3.7,2.2c-1.3,1.5-2.1,3.5-2.4,6.1v14.5l8.8,1.3l-0.4,3.3H111.2z"/>
		<path d="M139,67.9l0.5-3l5.7-1.4V40.1l-5.7-2.1l0.5-2.9l10.7-0.9l0.9,0.9v28.2l6.1,1.4l-0.4,3H139z M143.5,22.6
			c0-1.2,0.4-2.2,1.3-3c0.9-0.8,2-1.2,3.2-1.2c1.3,0,2.4,0.4,3.3,1.3c0.9,0.8,1.4,1.9,1.4,3.1c0,1.3-0.5,2.4-1.4,3.3
			c-0.9,0.9-2,1.4-3.3,1.4c-1.2,0-2.3-0.5-3.2-1.4C143.9,25,143.5,23.9,143.5,22.6z"/>
		<path d="M157,82l0.2-3l5.8-1.4V40.5l-5.8-1.7l0.5-2.9l11-1.4l0.8,0.7l-0.5,4.9h0.3c1.2-1.7,2.7-3.2,4.5-4.4c1.8-1.2,3.8-1.9,6-1.9
			c3.4,0,6.2,1.4,8.3,4.1c2.1,2.7,3.2,6.8,3.2,12.3c0,5.4-1.6,9.8-4.8,13.3c-3.2,3.5-7.2,5.2-12.1,5.2c-1.1,0-2.3-0.1-3.6-0.3
			l-0.2-4.6c0.9,0.3,1.7,0.6,2.4,0.7c0.8,0.1,1.9,0.2,3.4,0.2c2.6,0,4.5-1.1,5.9-3.3c1.4-2.2,2-5.1,2-8.8c0-9.2-2.4-13.7-7.2-13.7
			c-2.7,0-5.3,1.3-7.8,3.9v35l5.9,1.3l-0.5,3H157z"/>
		<path d="M193.5,62.5c0-1.3,0.4-2.4,1.3-3.4c0.9-0.9,2.1-1.5,3.7-1.6c0.8,2.6,1.8,4.6,3.1,5.9c1.3,1.3,2.6,2,4.1,2
			c1.5,0,2.7-0.3,3.6-0.9c0.9-0.6,1.4-1.6,1.4-2.9c0-0.8-0.3-1.6-0.9-2.3c-0.6-0.7-1.4-1.4-2.3-2c-1-0.6-2-1.2-3.2-1.9
			c-1.2-0.6-2.3-1.3-3.5-2.1c-1.2-0.8-2.2-1.6-3.2-2.4c-1-0.9-1.7-1.9-2.3-3.1c-0.6-1.2-0.9-2.5-0.9-3.9c0-1.1,0.2-2.3,0.7-3.4
			c0.5-1.2,1.2-2.2,2-3.2c0.9-1,2.1-1.8,3.6-2.4c1.5-0.6,3.1-0.9,5-0.9c2.6,0,4.8,0.6,6.6,1.7c1.8,1.1,2.7,2.7,2.7,4.6
			c0,1.6-0.5,2.9-1.4,3.9c-0.9,1-2.2,1.6-3.9,1.7l-0.3-1.6c-0.9-4.7-2.8-7-5.7-7c-1.3,0-2.3,0.4-3.1,1.3c-0.8,0.9-1.2,2-1.2,3.2
			c0,1,0.3,1.9,0.9,2.7c0.6,0.8,1.4,1.6,2.4,2.2c1,0.7,2.1,1.3,3.2,2c1.2,0.6,2.4,1.3,3.5,2.1c1.2,0.7,2.3,1.5,3.3,2.3
			c1,0.8,1.8,1.8,2.4,3c0.6,1.2,0.9,2.4,0.9,3.8c0,1.8-0.6,3.4-1.7,5c-1.1,1.5-2.6,2.7-4.4,3.5c-1.8,0.8-3.6,1.2-5.6,1.2
			c-3.3,0-5.9-0.7-8-2C194.6,65.9,193.5,64.3,193.5,62.5z"/>
		<path d="M217.3,38.2l0.5-3l10.2-0.8l0.9,0.9v20.6c0,5.1,1.9,7.7,5.8,7.7c2.8,0,5.2-1,7.1-2.9V40.5l-6-1.6l0.4-3.5l11.2-1l0.8,0.9
			v24.4c0,0.9,0.1,1.7,0.2,2.2c0.2,0.6,0.5,1,0.9,1.4c0.4,0.3,0.8,0.6,1.2,0.7c0.4,0.1,1,0.3,1.7,0.5l1.7,0.4l-0.3,3.1
			c-2,0.5-3.9,0.7-5.7,0.7s-3.2-0.5-4.2-1.5s-1.4-2.3-1.4-4v-0.3h-0.5c-2.7,3.9-6.3,5.8-10.9,5.8c-5.6,0-8.5-3.7-8.5-11V40.3
			L217.3,38.2z"/>
		<path d="M256,67.9l0.5-3l5.7-1.4V40.1l-5.7-2.1l0.5-2.9l10.7-0.9l0.9,0.9v28.2l6.1,1.4l-0.4,3H256z M260.5,22.6
			c0-1.2,0.4-2.2,1.3-3c0.9-0.8,2-1.2,3.2-1.2c1.3,0,2.4,0.4,3.3,1.3c0.9,0.8,1.4,1.9,1.4,3.1c0,1.3-0.5,2.4-1.4,3.3
			c-0.9,0.9-2,1.4-3.3,1.4c-1.2,0-2.3-0.5-3.2-1.4C260.9,25,260.5,23.9,260.5,22.6z"/>
		<path d="M274.5,38.2v-2c3.2-2.5,6.4-5.7,9.4-9.5h2v8.3h10.7l-0.3,3.3h-10.5l-0.1,17.5c0,2.8,0.4,4.8,1.3,5.8
			c0.9,1.1,2.3,1.6,4.3,1.6c0.8,0,1.7-0.2,2.6-0.5c0.9-0.4,1.6-0.7,2.1-1.1l0.8-0.5l0.8,2c-1.2,1.7-2.7,3.1-4.4,4.1
			c-1.8,1-3.7,1.5-5.8,1.5c-1.2,0-2.3-0.2-3.2-0.5c-0.9-0.3-1.8-0.9-2.5-1.7c-0.8-0.8-1.4-1.9-1.7-3.3c-0.4-1.4-0.6-3.2-0.6-5.2
			l0.2-19.8H274.5z"/>
	</g>
</g>
</svg>
